<svg width="48" height="51" viewBox="0 0 48 51" fill="none" xmlns="http://www.w3.org/2000/svg">
<path d="M26.7208 15.8499H26.1358C26.1358 16.0589 26.2473 16.252 26.4283 16.3565L26.7208 15.8499ZM26.7208 8.42455L27.0133 7.91794C26.8323 7.81343 26.6093 7.81342 26.4283 7.91792C26.2473 8.02242 26.1358 8.21555 26.1358 8.42455H26.7208ZM39.5808 23.2752L39.2883 23.7818C39.4693 23.8863 39.6923 23.8863 39.8733 23.7818C40.0543 23.6773 40.1658 23.4842 40.1658 23.2752H39.5808ZM39.5808 15.8499H40.1658C40.1658 15.6409 40.0543 15.4478 39.8733 15.3432L39.5808 15.8499ZM7.43 26.9871L7.13753 27.4937C7.31853 27.5982 7.54152 27.5982 7.72252 27.4937C7.90351 27.3892 8.015 27.1961 8.015 26.9871H7.43ZM1 23.2752H0.415C0.415 23.4842 0.526513 23.6773 0.707528 23.7818L1 23.2752ZM7.43 19.5625H8.015C8.015 19.3535 7.90351 19.1604 7.72252 19.0559L7.43 19.5625ZM1 15.8499L1.29252 15.3432C1.11152 15.2387 0.888513 15.2387 0.707509 15.3432C0.526504 15.4477 0.415 15.6409 0.415 15.8499H1ZM20.29 19.5625H20.875C20.875 19.3535 20.7635 19.1604 20.5825 19.0559C20.4015 18.9514 20.1785 18.9514 19.9975 19.0559L20.29 19.5625ZM13.86 23.2752L13.5675 22.7686C13.3865 22.8731 13.275 23.0662 13.275 23.2752H13.86ZM20.29 26.9871H19.705C19.705 27.1961 19.8165 27.3892 19.9975 27.4937L20.29 26.9871ZM26.7208 30.6997H27.3058C27.3058 30.4907 27.1943 30.2976 27.0133 30.1931L26.7208 30.6997ZM26.7208 38.125L26.4283 38.6317C26.6093 38.7362 26.8323 38.7362 27.0133 38.6317C27.1943 38.5272 27.3058 38.334 27.3058 38.125H26.7208ZM20.29 34.4124L20.5825 33.9058C20.4015 33.8013 20.1785 33.8013 19.9975 33.9058C19.8165 34.0103 19.705 34.2034 19.705 34.4124H20.29ZM20.29 49.2622L19.9975 49.7689C20.1785 49.8734 20.4015 49.8734 20.5825 49.7689C20.7635 49.6644 20.875 49.4712 20.875 49.2622H20.29ZM13.86 45.5496H13.275C13.275 45.7586 13.3865 45.9517 13.5675 46.0562L13.86 45.5496ZM27.3058 15.8499V8.42455H26.1358V15.8499H27.3058ZM39.8733 22.7686L27.0133 15.3432L26.4283 16.3565L39.2883 23.7818L39.8733 22.7686ZM38.9958 15.8499V23.2752H40.1658V15.8499H38.9958ZM26.4283 8.93117L39.2883 16.3565L39.8733 15.3432L27.0133 7.91794L26.4283 8.93117ZM7.72247 26.4804L1.29247 22.7685L0.707528 23.7818L7.13753 27.4937L7.72247 26.4804ZM6.845 19.5625V26.9871H8.015V19.5625H6.845ZM0.707483 16.3565L7.13748 20.0691L7.72252 19.0559L1.29252 15.3432L0.707483 16.3565ZM1.585 23.2752V15.8499H0.415V23.2752H1.585ZM19.9975 19.0559L13.5675 22.7686L14.1525 23.7818L20.5825 20.0691L19.9975 19.0559ZM20.875 26.9871V19.5625H19.705V26.9871H20.875ZM27.0133 30.1931L20.5825 26.4804L19.9975 27.4937L26.4283 31.2064L27.0133 30.1931ZM27.3058 38.125V30.6997H26.1358V38.125H27.3058ZM19.9975 34.919L26.4283 38.6317L27.0133 37.6184L20.5825 33.9058L19.9975 34.919ZM20.875 49.2622V34.4124H19.705V49.2622H20.875ZM13.5675 46.0562L19.9975 49.7689L20.5825 48.7556L14.1525 45.043L13.5675 46.0562ZM13.275 23.2752V45.5496H14.445V23.2752H13.275Z" fill="black"/>
<path d="M26.7208 8.42455H27.3058C27.3058 8.21555 27.1943 8.02243 27.0133 7.91793C26.8323 7.81343 26.6093 7.81343 26.4283 7.91793L26.7208 8.42455ZM7.42999 19.5625L7.13748 19.0559C6.95649 19.1604 6.84499 19.3535 6.84499 19.5625H7.42999ZM26.7208 23.2752L27.0132 23.7818C27.1942 23.6773 27.3058 23.4842 27.3058 23.2752H26.7208ZM20.29 26.9871H19.705C19.705 27.1961 19.8165 27.3892 19.9975 27.4937C20.1785 27.5982 20.4014 27.5982 20.5824 27.4937L20.29 26.9871ZM20.29 19.5625H20.875C20.875 19.3535 20.7635 19.1604 20.5825 19.0559C20.4015 18.9514 20.1785 18.9514 19.9975 19.0559L20.29 19.5625ZM7.42999 26.9871H6.84499C6.84499 27.1961 6.95649 27.3892 7.13749 27.4937C7.31849 27.5982 7.54149 27.5982 7.72249 27.4937L7.42999 26.9871ZM46.0115 12.1372H46.5965C46.5965 11.9282 46.485 11.7351 46.304 11.6306C46.1231 11.5261 45.9001 11.5261 45.7191 11.6306L46.0115 12.1372ZM39.5808 15.8499L39.2883 15.3432C39.1073 15.4477 38.9958 15.6409 38.9958 15.8499H39.5808ZM46.0115 19.5625L46.304 20.0692C46.485 19.9647 46.5965 19.7715 46.5965 19.5625H46.0115ZM39.5808 23.2752H38.9958C38.9958 23.4842 39.1073 23.6773 39.2883 23.7818C39.4693 23.8863 39.6923 23.8863 39.8733 23.7818L39.5808 23.2752ZM26.7208 30.6997L26.4283 30.1931C26.2473 30.2976 26.1358 30.4907 26.1358 30.6997H26.7208ZM33.1508 26.9871H33.7358C33.7358 26.7781 33.6243 26.5849 33.4433 26.4804C33.2623 26.3759 33.0393 26.3759 32.8583 26.4805L33.1508 26.9871ZM20.29 34.4124L20.5825 33.9058C20.4015 33.8013 20.1785 33.8013 19.9975 33.9058C19.8165 34.0103 19.705 34.2034 19.705 34.4124H20.29ZM20.29 49.2622H19.705C19.705 49.4712 19.8165 49.6644 19.9975 49.7689C20.1785 49.8734 20.4015 49.8734 20.5825 49.7689L20.29 49.2622ZM26.7208 45.5496L27.0133 46.0562C27.1943 45.9517 27.3058 45.7586 27.3058 45.5496H26.7208ZM33.1508 34.4124L33.4433 34.919C33.6243 34.8145 33.7358 34.6214 33.7358 34.4124H33.1508ZM26.4283 7.91793L7.13748 19.0559L7.7225 20.0691L27.0133 8.93117L26.4283 7.91793ZM27.3058 23.2752V8.42455H26.1358V23.2752H27.3058ZM20.5824 27.4937L27.0132 23.7818L26.4283 22.7685L19.9976 26.4804L20.5824 27.4937ZM19.705 19.5625V26.9871H20.875V19.5625H19.705ZM7.72249 27.4937L20.5825 20.0691L19.9975 19.0559L7.1375 26.4804L7.72249 27.4937ZM6.84499 19.5625V26.9871H8.01499V19.5625H6.84499ZM45.7191 11.6306L39.2883 15.3432L39.8733 16.3565L46.304 12.6438L45.7191 11.6306ZM46.5965 19.5625V12.1372H45.4265V19.5625H46.5965ZM39.8733 23.7818L46.304 20.0692L45.7191 19.0559L39.2883 22.7685L39.8733 23.7818ZM38.9958 15.8499V23.2752H40.1658V15.8499H38.9958ZM27.0133 31.2063L33.4433 27.4937L32.8583 26.4805L26.4283 30.1931L27.0133 31.2063ZM27.3058 38.125V30.6997H26.1358V38.125H27.3058ZM27.0133 37.6184L20.5825 33.9058L19.9975 34.919L26.4283 38.6317L27.0133 37.6184ZM19.705 34.4124V49.2622H20.875V34.4124H19.705ZM20.5825 49.7689L27.0133 46.0562L26.4283 45.043L19.9975 48.7556L20.5825 49.7689ZM27.3058 45.5496V38.125H26.1358V45.5496H27.3058ZM32.8583 33.9058L26.4283 37.6184L27.0133 38.6317L33.4433 34.919L32.8583 33.9058ZM32.5658 26.9871V34.4124H33.7358V26.9871H32.5658Z" fill="black"/>
<path d="M26.7208 1.00001L27.0133 0.493379C26.8323 0.388883 26.6093 0.388884 26.4283 0.493382L26.7208 1.00001ZM1 15.8499L0.707501 15.3432C0.526504 15.4477 0.415004 15.6409 0.415 15.8499C0.414996 16.0589 0.52649 16.252 0.707483 16.3565L1 15.8499ZM46.0116 12.1372L46.304 12.6438C46.485 12.5393 46.5965 12.3462 46.5965 12.1372C46.5965 11.9282 46.485 11.7351 46.304 11.6306L46.0116 12.1372ZM39.5808 15.8499L39.2883 16.3565C39.4693 16.461 39.6923 16.461 39.8733 16.3565L39.5808 15.8499ZM26.7208 8.42456L27.0133 7.91794C26.8323 7.81343 26.6093 7.81343 26.4283 7.91794L26.7208 8.42456ZM7.43 19.5625L7.13748 20.0691C7.31849 20.1737 7.5415 20.1737 7.72251 20.0691L7.43 19.5625ZM26.7208 23.2752L27.0133 22.7685C26.8323 22.6641 26.6093 22.6641 26.4283 22.7685L26.7208 23.2752ZM20.29 26.9871L19.9976 26.4804C19.8165 26.5849 19.705 26.778 19.705 26.987C19.705 27.1961 19.8165 27.3892 19.9975 27.4937L20.29 26.9871ZM33.1508 26.9871L33.4433 27.4937C33.6243 27.3892 33.7358 27.1961 33.7358 26.987C33.7358 26.778 33.6243 26.5849 33.4433 26.4804L33.1508 26.9871ZM26.7208 30.6997L26.4283 31.2064C26.6093 31.3109 26.8323 31.3109 27.0133 31.2063L26.7208 30.6997ZM26.4283 0.493382L0.707501 15.3432L1.2925 16.3565L27.0133 1.50663L26.4283 0.493382ZM46.304 11.6306L27.0133 0.493379L26.4283 1.50664L45.7191 12.6438L46.304 11.6306ZM39.8733 16.3565L46.304 12.6438L45.7191 11.6306L39.2883 15.3432L39.8733 16.3565ZM26.4283 8.93117L39.2883 16.3565L39.8733 15.3433L27.0133 7.91794L26.4283 8.93117ZM7.72251 20.0691L27.0133 8.93118L26.4283 7.91794L7.13749 19.0559L7.72251 20.0691ZM0.707483 16.3565L7.13748 20.0691L7.72252 19.0559L1.29252 15.3433L0.707483 16.3565ZM26.4283 22.7685L19.9976 26.4804L20.5825 27.4937L27.0132 23.7818L26.4283 22.7685ZM33.4433 26.4804L27.0133 22.7685L26.4283 23.7818L32.8583 27.4937L33.4433 26.4804ZM27.0133 31.2063L33.4433 27.4937L32.8583 26.4805L26.4283 30.1931L27.0133 31.2063ZM19.9975 27.4937L26.4283 31.2064L27.0133 30.1931L20.5825 26.4804L19.9975 27.4937Z" fill="black"/>
</svg>
