<svg width="47" height="47" viewBox="0 0 47 47" fill="none" xmlns="http://www.w3.org/2000/svg">
<path fill-rule="evenodd" clip-rule="evenodd" d="M1.66643e-05 23.0222C0.0107267 10.2967 10.3324 -0.0107086 23.0578 1.40556e-06C35.7762 0.0107114 46.08 10.3217 46.08 23.04C46.0604 35.7638 35.7459 46.0693 23.0222 46.08C10.2967 46.0693 -0.0106933 35.7476 1.66643e-05 23.0222ZM3.81629 23.04C3.81629 33.6469 12.4152 42.246 23.0222 42.246C33.6291 42.246 42.2281 33.6469 42.2281 23.04C42.2174 12.4367 33.6255 3.8448 23.0222 3.83409C12.4152 3.83409 3.81629 12.4331 3.81629 23.04Z" fill="black"/>
<path fill-rule="evenodd" clip-rule="evenodd" d="M29.2459 21.9165C30.7867 21.048 31.6194 19.3094 31.3323 17.5653C30.9757 14.8726 27.7658 13.856 25.2335 13.6421V9.59409H22.7369V13.6065H21.0606V9.59409H18.564V13.6065H13.5351V16.1923H15.4075C16.2457 16.1923 16.6558 16.4419 16.6558 17.1195V28.2294C16.6558 29.1567 16.1922 29.4421 15.6928 29.4421H13.7848V32.0813H18.6353V36.1829H21.1497V32.0813H22.826V36.1829H25.2691V32.0813H25.8041C30.9399 32.0813 32.6519 29.5669 32.6519 26.143C32.6109 24.1242 31.211 22.3873 29.2459 21.9165ZM21.0605 16.3527H22.8438C24.0921 16.3527 26.5531 16.5667 26.5531 18.5997C26.6386 19.9264 25.6774 21.0892 24.3596 21.2567H21.0605V16.3527ZM23.8246 29.1745V29.1923C26.4996 29.1923 27.837 28.0688 27.837 26.0716C27.837 24.0743 25.0195 23.8246 24.2705 23.8246H21.0605V29.1745H23.8246Z" fill="black"/>
</svg>
