<svg width="105" height="26" viewBox="0 0 105 26" fill="none" xmlns="http://www.w3.org/2000/svg">
<rect width="105" height="26" rx="12.6" fill="#449B21"/>
<path d="M14.3545 11.9155H16.7666V13.3247H14.3545V16.0732H12.8564V13.3247H10.4316V11.9155H12.8564V9.34473H14.3545V11.9155ZM25.355 17H23.8188V9.57959L21.5527 10.354V9.05273L25.1582 7.72607H25.355V17ZM33.3657 7.71338V8.98926H33.1753C32.312 9.00195 31.6222 9.23893 31.106 9.7002C30.5897 10.1615 30.2829 10.8153 30.1855 11.6616C30.6807 11.1411 31.3133 10.8809 32.0835 10.8809C32.9002 10.8809 33.5435 11.1686 34.0132 11.7441C34.4871 12.3197 34.7241 13.0623 34.7241 13.9722C34.7241 14.9116 34.4469 15.6733 33.8926 16.2573C33.3424 16.8371 32.6188 17.127 31.7217 17.127C30.7992 17.127 30.0501 16.7863 29.4746 16.105C28.9033 15.4237 28.6177 14.5308 28.6177 13.4263V12.8994C28.6177 11.2786 29.0112 10.0091 29.7983 9.09082C30.5897 8.17253 31.7259 7.71338 33.207 7.71338H33.3657ZM31.709 12.125C31.3704 12.125 31.0594 12.2202 30.7759 12.4106C30.4966 12.6011 30.2913 12.855 30.1602 13.1724V13.6421C30.1602 14.3276 30.304 14.8735 30.5918 15.2798C30.8796 15.6818 31.252 15.8828 31.709 15.8828C32.166 15.8828 32.5278 15.7114 32.7944 15.3687C33.061 15.0259 33.1943 14.5752 33.1943 14.0166C33.1943 13.458 33.0589 13.0031 32.7881 12.6519C32.5173 12.3006 32.1576 12.125 31.709 12.125ZM37.0156 15.375C37.3034 15.375 37.5256 15.4575 37.6821 15.6226C37.8387 15.7834 37.917 15.9865 37.917 16.2319C37.917 16.4731 37.8387 16.6742 37.6821 16.835C37.5256 16.9915 37.3034 17.0698 37.0156 17.0698C36.7406 17.0698 36.5226 16.9915 36.3618 16.835C36.201 16.6784 36.1206 16.4774 36.1206 16.2319C36.1206 15.9865 36.1989 15.7834 36.3555 15.6226C36.512 15.4575 36.7321 15.375 37.0156 15.375ZM39.999 12.417L40.5005 7.75781H45.4644V9.09082H41.7827L41.5288 11.2998C41.9562 11.0544 42.4386 10.9316 42.9761 10.9316C43.8563 10.9316 44.5397 11.2131 45.0264 11.7759C45.5173 12.3387 45.7627 13.0962 45.7627 14.0483C45.7627 14.9878 45.4919 15.7368 44.9502 16.2954C44.4085 16.8498 43.6659 17.127 42.7222 17.127C41.8758 17.127 41.1733 16.8879 40.6147 16.4097C40.0604 15.9272 39.7599 15.2925 39.7134 14.5054H41.2051C41.2643 14.9539 41.4251 15.2988 41.6875 15.54C41.9499 15.777 42.2926 15.8955 42.7158 15.8955C43.1898 15.8955 43.5579 15.7262 43.8203 15.3877C44.0869 15.0492 44.2202 14.5879 44.2202 14.0039C44.2202 13.4411 44.0742 12.9967 43.7822 12.6709C43.4902 12.3408 43.0882 12.1758 42.5762 12.1758C42.2969 12.1758 42.0599 12.2139 41.8652 12.29C41.6706 12.362 41.459 12.5059 41.2305 12.7217L39.999 12.417ZM50.022 13.5151C50.022 12.4572 50.2674 11.6087 50.7583 10.9697C51.2492 10.3265 51.9072 10.0049 52.7324 10.0049C53.4603 10.0049 54.0485 10.2588 54.4971 10.7666V7.25H56.0396V17H54.6431L54.5669 16.2891C54.1056 16.8477 53.4899 17.127 52.7197 17.127C51.9157 17.127 51.264 16.8032 50.7646 16.1558C50.2695 15.5083 50.022 14.6281 50.022 13.5151ZM51.5645 13.6484C51.5645 14.3467 51.6978 14.8926 51.9644 15.2861C52.2352 15.6755 52.6182 15.8701 53.1133 15.8701C53.7438 15.8701 54.2051 15.5887 54.4971 15.0259V12.0933C54.2135 11.5431 53.7565 11.2681 53.126 11.2681C52.6266 11.2681 52.2415 11.467 51.9707 11.8647C51.6999 12.2583 51.5645 12.8529 51.5645 13.6484ZM61.7524 17C61.6847 16.8688 61.6255 16.6551 61.5747 16.3589C61.0838 16.8709 60.4829 17.127 59.772 17.127C59.0822 17.127 58.5194 16.9302 58.0835 16.5366C57.6476 16.1431 57.4297 15.6564 57.4297 15.0767C57.4297 14.3446 57.7005 13.7839 58.2422 13.3945C58.7881 13.001 59.5667 12.8042 60.5781 12.8042H61.5239V12.3535C61.5239 11.998 61.4245 11.7145 61.2256 11.5029C61.0267 11.2871 60.7241 11.1792 60.3179 11.1792C59.9666 11.1792 59.6789 11.2681 59.4546 11.4458C59.2303 11.6193 59.1182 11.8415 59.1182 12.1123H57.5757C57.5757 11.7357 57.7005 11.3844 57.9502 11.0586C58.1999 10.7285 58.5384 10.4704 58.9658 10.2842C59.3975 10.098 59.8778 10.0049 60.4067 10.0049C61.2108 10.0049 61.8519 10.208 62.3301 10.6143C62.8083 11.0163 63.0537 11.5833 63.0664 12.3154V15.4131C63.0664 16.0309 63.1532 16.5239 63.3267 16.8921V17H61.7524ZM60.0576 15.8892C60.3623 15.8892 60.6479 15.8151 60.9146 15.667C61.1854 15.5189 61.3885 15.32 61.5239 15.0703V13.7754H60.6924C60.1211 13.7754 59.6916 13.8748 59.4038 14.0737C59.116 14.2726 58.9722 14.554 58.9722 14.918C58.9722 15.2142 59.0695 15.4512 59.2642 15.6289C59.4631 15.8024 59.7275 15.8892 60.0576 15.8892ZM66.9829 14.791L68.3794 10.1318H70.0234L67.2939 18.041C66.875 19.1963 66.1641 19.7739 65.1611 19.7739C64.9368 19.7739 64.6893 19.7358 64.4185 19.6597V18.4663L64.7104 18.4854C65.0998 18.4854 65.3918 18.4134 65.5864 18.2695C65.7853 18.1299 65.9419 17.8929 66.0562 17.5586L66.2783 16.9683L63.8662 10.1318H65.5293L66.9829 14.791ZM74.7651 15.1338C74.7651 14.8587 74.6509 14.6493 74.4224 14.5054C74.1981 14.3615 73.8236 14.2345 73.2988 14.1245C72.7741 14.0145 72.3361 13.8748 71.9849 13.7056C71.2147 13.3332 70.8296 12.7936 70.8296 12.0869C70.8296 11.4945 71.0793 10.9993 71.5786 10.6016C72.078 10.2038 72.7127 10.0049 73.4829 10.0049C74.3039 10.0049 74.9661 10.208 75.4697 10.6143C75.9775 11.0205 76.2314 11.5474 76.2314 12.1948H74.689C74.689 11.8986 74.5789 11.6532 74.3589 11.4585C74.1388 11.2596 73.8468 11.1602 73.4829 11.1602C73.1444 11.1602 72.8672 11.2384 72.6514 11.395C72.4398 11.5516 72.334 11.7611 72.334 12.0234C72.334 12.2604 72.4334 12.4445 72.6323 12.5757C72.8312 12.7069 73.2332 12.8402 73.8384 12.9756C74.4435 13.1068 74.9175 13.2655 75.2603 13.4517C75.6073 13.6336 75.8633 13.8537 76.0283 14.1118C76.1976 14.37 76.2822 14.6831 76.2822 15.0513C76.2822 15.6691 76.0262 16.1706 75.5142 16.5557C75.0021 16.9365 74.3314 17.127 73.502 17.127C72.9391 17.127 72.4377 17.0254 71.9976 16.8223C71.5575 16.6191 71.2147 16.3398 70.9692 15.9844C70.7238 15.6289 70.6011 15.2459 70.6011 14.8354H72.0991C72.1203 15.1994 72.2578 15.4808 72.5117 15.6797C72.7656 15.8743 73.1021 15.9717 73.521 15.9717C73.9272 15.9717 74.2362 15.8955 74.4478 15.7432C74.6593 15.5866 74.7651 15.3835 74.7651 15.1338ZM78.0659 17.7935H76.8535L80.4907 7.75781H81.7031L78.0659 17.7935ZM85.1753 14.791L86.5718 10.1318H88.2158L85.4863 18.041C85.0674 19.1963 84.3564 19.7739 83.3535 19.7739C83.1292 19.7739 82.8817 19.7358 82.6108 19.6597V18.4663L82.9028 18.4854C83.2922 18.4854 83.5841 18.4134 83.7788 18.2695C83.9777 18.1299 84.1343 17.8929 84.2485 17.5586L84.4707 16.9683L82.0586 10.1318H83.7217L85.1753 14.791ZM92.7036 11.541C92.5005 11.5072 92.291 11.4902 92.0752 11.4902C91.3685 11.4902 90.8924 11.7611 90.647 12.3027V17H89.1045V10.1318H90.5771L90.6152 10.8999C90.9876 10.3032 91.5039 10.0049 92.1641 10.0049C92.3841 10.0049 92.5661 10.0345 92.71 10.0938L92.7036 11.541Z" fill="white"/>
</svg>
