<svg width="108" height="130" viewBox="0 0 108 130" fill="none" xmlns="http://www.w3.org/2000/svg">
<circle cx="55" cy="46" r="46" fill="white"/>
<path d="M55.0171 23C54.1891 23 53.5171 22.4027 53.5171 21.6667V16.3333C53.5171 15.5973 54.1891 15 55.0171 15C55.8451 15 56.5171 15.5973 56.5171 16.3333V21.6667C56.5171 22.4027 55.8451 23 55.0171 23Z" fill="#449B21"/>
<path d="M73.7607 30C73.4425 30 73.1243 29.8782 72.8807 29.637C72.3959 29.1522 72.3959 28.364 72.8807 27.8792L76.3959 24.3636C76.8807 23.8788 77.6687 23.8788 78.1535 24.3636C78.6383 24.8484 78.6383 25.6366 78.1535 26.1214L74.6383 29.637C74.3971 29.8782 74.0789 30 73.7607 30Z" fill="#449B21"/>
<path d="M86.1838 48H80.8504C80.1144 48 79.5171 47.328 79.5171 46.5C79.5171 45.672 80.1144 45 80.8504 45H86.1838C86.9198 45 87.5171 45.672 87.5171 46.5C87.5171 47.328 86.9198 48 86.1838 48Z" fill="#449B21"/>
<path d="M77.2759 70C76.9577 70 76.6395 69.8782 76.3959 69.637L72.8807 66.1214C72.3959 65.6366 72.3959 64.8484 72.8807 64.3636C73.3654 63.8788 74.1535 63.8788 74.6383 64.3636L78.1535 67.8792C78.6383 68.364 78.6383 69.1522 78.1535 69.637C77.9124 69.8782 77.5942 70 77.2759 70Z" fill="#449B21"/>
<path d="M55.0171 79C54.1891 79 53.5171 78.4027 53.5171 77.6667V72.3333C53.5171 71.5973 54.1891 71 55.0171 71C55.8451 71 56.5171 71.5973 56.5171 72.3333V77.6667C56.5171 78.4027 55.8451 79 55.0171 79Z" fill="#449B21"/>
<path d="M33.7607 70C33.4425 70 33.1243 69.8782 32.8807 69.637C32.3959 69.1522 32.3959 68.364 32.8807 67.8792L36.3959 64.3636C36.8807 63.8788 37.6687 63.8788 38.1535 64.3636C38.6383 64.8484 38.6383 65.6366 38.1535 66.1214L34.6383 69.637C34.3971 69.8782 34.0789 70 33.7607 70Z" fill="#449B21"/>
<path d="M30.1838 48H24.8504C24.1144 48 23.5171 47.328 23.5171 46.5C23.5171 45.672 24.1144 45 24.8504 45H30.1838C30.9198 45 31.5171 45.672 31.5171 46.5C31.5171 47.328 30.9198 48 30.1838 48Z" fill="#449B21"/>
<path d="M37.2735 30C36.9553 30 36.637 29.8782 36.3934 29.637L32.8807 26.1214C32.3959 25.6366 32.3959 24.8484 32.8807 24.3636C33.3654 23.8788 34.1535 23.8788 34.6383 24.3636L38.1535 27.8792C38.6383 28.364 38.6383 29.1522 38.1535 29.637C37.9099 29.8782 37.5917 30 37.2735 30Z" fill="#449B21"/>
<path fill-rule="evenodd" clip-rule="evenodd" d="M50.6923 67.9167C50.8489 67.9731 51.0055 68 51.1648 68C51.6076 68 52.0369 67.7823 52.2934 67.398L68.2967 43.2123C68.5668 42.7958 68.5911 42.2691 68.3561 41.8337C68.1212 41.3984 67.6649 41.127 67.1681 41.127H57.9609L60.4017 26.5671C60.5043 25.9544 60.1722 25.3552 59.5998 25.1106C59.0301 24.8634 58.3632 25.0408 57.9879 25.5406L41.7874 47.039C41.4796 47.4475 41.431 47.993 41.6605 48.4472C41.89 48.9013 42.3571 49.1889 42.8674 49.1889H52.1287L49.8255 66.4817C49.7418 67.0998 50.1009 67.6963 50.6923 67.9167ZM53.6677 46.5016H45.5675L56.8268 31.5602L55.0367 42.2503C54.9692 42.6372 55.0799 43.0376 55.3364 43.3386C55.5956 43.6423 55.9709 43.8143 56.3678 43.8143H64.6624L53.2762 61.0238L55.007 48.0226C55.0583 47.6383 54.9395 47.2486 54.683 46.9611C54.4265 46.6709 54.0592 46.5016 53.6677 46.5016Z" fill="#449B21"/>
<path d="M4.29785 126H2.08301V113.203H4.29785V126ZM13.4121 117.527C14.1094 116.719 14.9912 116.314 16.0576 116.314C18.085 116.314 19.1133 117.472 19.1426 119.786V126H17.0068V119.865C17.0068 119.209 16.8633 118.746 16.5762 118.477C16.2949 118.201 15.8789 118.063 15.3281 118.063C14.4727 118.063 13.834 118.444 13.4121 119.206V126H11.2764V112.5H13.4121V117.527ZM26.9912 126C26.8975 125.818 26.8154 125.522 26.7451 125.112C26.0654 125.821 25.2334 126.176 24.249 126.176C23.2939 126.176 22.5146 125.903 21.9111 125.358C21.3076 124.813 21.0059 124.14 21.0059 123.337C21.0059 122.323 21.3809 121.547 22.1309 121.008C22.8867 120.463 23.9648 120.19 25.3652 120.19H26.6748V119.566C26.6748 119.074 26.5371 118.682 26.2617 118.389C25.9863 118.09 25.5674 117.94 25.0049 117.94C24.5186 117.94 24.1201 118.063 23.8096 118.31C23.499 118.55 23.3438 118.857 23.3438 119.232H21.208C21.208 118.711 21.3809 118.225 21.7266 117.773C22.0723 117.316 22.541 116.959 23.1328 116.701C23.7305 116.443 24.3955 116.314 25.1279 116.314C26.2412 116.314 27.1289 116.596 27.791 117.158C28.4531 117.715 28.793 118.5 28.8105 119.514V123.803C28.8105 124.658 28.9307 125.341 29.1709 125.851V126H26.9912ZM24.6445 124.462C25.0664 124.462 25.4619 124.359 25.8311 124.154C26.2061 123.949 26.4873 123.674 26.6748 123.328V121.535H25.5234C24.7324 121.535 24.1377 121.673 23.7393 121.948C23.3408 122.224 23.1416 122.613 23.1416 123.117C23.1416 123.527 23.2764 123.855 23.5459 124.102C23.8213 124.342 24.1875 124.462 24.6445 124.462ZM34.2598 123.293L36.2725 116.49H38.4785L35.1826 126H33.3281L30.0059 116.49H32.2207L34.2598 123.293ZM43.8838 126.176C42.5303 126.176 41.4316 125.751 40.5879 124.901C39.75 124.046 39.3311 122.909 39.3311 121.491V121.228C39.3311 120.278 39.5127 119.432 39.876 118.688C40.2451 117.938 40.7607 117.354 41.4229 116.938C42.085 116.522 42.8232 116.314 43.6377 116.314C44.9326 116.314 45.9316 116.728 46.6348 117.554C47.3438 118.38 47.6982 119.549 47.6982 121.061V121.922H41.4844C41.5488 122.707 41.8096 123.328 42.2666 123.785C42.7295 124.242 43.3096 124.471 44.0068 124.471C44.9854 124.471 45.7822 124.075 46.3975 123.284L47.5488 124.383C47.168 124.951 46.6582 125.394 46.0195 125.71C45.3867 126.021 44.6748 126.176 43.8838 126.176ZM43.6289 118.028C43.043 118.028 42.5684 118.233 42.2051 118.644C41.8477 119.054 41.6191 119.625 41.5195 120.357H45.5889V120.199C45.542 119.484 45.3516 118.945 45.0176 118.582C44.6836 118.213 44.2207 118.028 43.6289 118.028ZM62.1738 121.342C62.1738 122.812 61.8398 123.987 61.1719 124.866C60.5039 125.739 59.6074 126.176 58.4824 126.176C57.4395 126.176 56.6045 125.833 55.9775 125.147V129.656H53.8418V116.49H55.8105L55.8984 117.457C56.5254 116.695 57.3779 116.314 58.4561 116.314C59.6162 116.314 60.5244 116.748 61.1807 117.615C61.8428 118.477 62.1738 119.675 62.1738 121.21V121.342ZM60.0469 121.157C60.0469 120.208 59.8564 119.455 59.4756 118.898C59.1006 118.342 58.5615 118.063 57.8584 118.063C56.9854 118.063 56.3584 118.424 55.9775 119.145V123.363C56.3643 124.102 56.9971 124.471 57.876 124.471C58.5557 124.471 59.0859 124.198 59.4668 123.653C59.8535 123.103 60.0469 122.271 60.0469 121.157ZM63.5889 121.157C63.5889 120.226 63.7734 119.388 64.1426 118.644C64.5117 117.894 65.0303 117.319 65.6982 116.921C66.3662 116.517 67.1338 116.314 68.001 116.314C69.2842 116.314 70.3242 116.728 71.1211 117.554C71.9238 118.38 72.3574 119.476 72.4219 120.841L72.4307 121.342C72.4307 122.279 72.249 123.117 71.8857 123.855C71.5283 124.594 71.0127 125.165 70.3389 125.569C69.6709 125.974 68.8975 126.176 68.0186 126.176C66.6768 126.176 65.6016 125.73 64.793 124.84C63.9902 123.943 63.5889 122.751 63.5889 121.263V121.157ZM65.7246 121.342C65.7246 122.32 65.9268 123.088 66.3311 123.645C66.7354 124.195 67.2979 124.471 68.0186 124.471C68.7393 124.471 69.2988 124.189 69.6973 123.627C70.1016 123.064 70.3037 122.241 70.3037 121.157C70.3037 120.196 70.0957 119.435 69.6797 118.872C69.2695 118.31 68.71 118.028 68.001 118.028C67.3037 118.028 66.75 118.307 66.3398 118.863C65.9297 119.414 65.7246 120.24 65.7246 121.342ZM82.5908 123.056L84.1025 116.49H86.1855L83.5928 126H81.835L79.7959 119.47L77.792 126H76.0342L73.4326 116.49H75.5156L77.0537 122.985L79.0049 116.49H80.6133L82.5908 123.056ZM91.8018 126.176C90.4482 126.176 89.3496 125.751 88.5059 124.901C87.668 124.046 87.249 122.909 87.249 121.491V121.228C87.249 120.278 87.4307 119.432 87.7939 118.688C88.1631 117.938 88.6787 117.354 89.3408 116.938C90.0029 116.522 90.7412 116.314 91.5557 116.314C92.8506 116.314 93.8496 116.728 94.5527 117.554C95.2617 118.38 95.6162 119.549 95.6162 121.061V121.922H89.4023C89.4668 122.707 89.7275 123.328 90.1846 123.785C90.6475 124.242 91.2275 124.471 91.9248 124.471C92.9033 124.471 93.7002 124.075 94.3154 123.284L95.4668 124.383C95.0859 124.951 94.5762 125.394 93.9375 125.71C93.3047 126.021 92.5928 126.176 91.8018 126.176ZM91.5469 118.028C90.9609 118.028 90.4863 118.233 90.123 118.644C89.7656 119.054 89.5371 119.625 89.4375 120.357H93.5068V120.199C93.46 119.484 93.2695 118.945 92.9355 118.582C92.6016 118.213 92.1387 118.028 91.5469 118.028ZM102.261 118.441C101.979 118.395 101.689 118.371 101.391 118.371C100.412 118.371 99.7529 118.746 99.4131 119.496V126H97.2773V116.49H99.3164L99.3691 117.554C99.8848 116.728 100.6 116.314 101.514 116.314C101.818 116.314 102.07 116.355 102.27 116.438L102.261 118.441ZM105.873 122.229H104.036L103.834 113.203H106.084L105.873 122.229ZM103.772 124.989C103.772 124.655 103.881 124.38 104.098 124.163C104.314 123.94 104.61 123.829 104.985 123.829C105.36 123.829 105.656 123.94 105.873 124.163C106.09 124.38 106.198 124.655 106.198 124.989C106.198 125.312 106.093 125.581 105.882 125.798C105.671 126.015 105.372 126.123 104.985 126.123C104.599 126.123 104.3 126.015 104.089 125.798C103.878 125.581 103.772 125.312 103.772 124.989Z" fill="white"/>
</svg>
