<svg width="110" height="130" viewBox="0 0 110 130" fill="none" xmlns="http://www.w3.org/2000/svg">
<circle cx="55" cy="46" r="46" fill="#01A4DA"/>
<path fill-rule="evenodd" clip-rule="evenodd" d="M45.4545 25.3477C45.4545 24.6034 46.0651 24 46.8182 24C47.5713 24 48.1818 24.6034 48.1818 25.3477V32.2656H61.8182V25.3477C61.8182 24.6034 62.4287 24 63.1818 24C63.9349 24 64.5455 24.6034 64.5455 25.3477V32.2656H68.6364C69.3895 32.2656 70 32.869 70 33.6133V39.0039C70 39.7482 69.3895 40.3516 68.6364 40.3516H67.2727V47.0898C67.2727 53.2931 62.536 58.4228 56.4494 59.1338C57.0757 63.7406 61.0789 67.3047 65.9091 67.3047C66.6622 67.3047 67.2727 67.9081 67.2727 68.6523C67.2727 69.3966 66.6622 70 65.9091 70C59.5794 70 54.3539 65.2396 53.7046 59.1513C47.5441 58.5096 42.7273 53.3454 42.7273 47.0898V40.3516H41.3636C40.6105 40.3516 40 39.7482 40 39.0039V33.6133C40 32.869 40.6105 32.2656 41.3636 32.2656H45.4545V25.3477ZM65.9091 37.6562H67.2727V34.9609H42.7273V37.6562H44.0909C44.844 37.6562 45.4545 38.2596 45.4545 39.0039V47.0898C45.4545 52.2915 49.7366 56.5234 55 56.5234C60.2634 56.5234 64.5455 52.2915 64.5455 47.0898V39.0039C64.5455 38.2596 65.156 37.6562 65.9091 37.6562Z" fill="white"/>
<path d="M58.2631 45.6475L54.5842 43.7565L55.9428 42.3598C57.1893 41.0784 55.3055 39.1377 54.0571 40.4212L51.3904 43.1628C50.7476 43.8236 50.9231 44.9398 51.7369 45.3581L55.4158 47.2492L54.0571 48.6459C52.8078 49.9302 54.7088 51.8533 55.9428 50.5845L58.6096 47.8429C59.2525 47.1821 59.0768 46.0659 58.2631 45.6475Z" fill="white"/>
<path d="M4.56836 126H2.35352V113.203H4.56836V126ZM63.9033 121.342C63.9033 122.812 63.5693 123.987 62.9014 124.866C62.2334 125.739 61.3369 126.176 60.2119 126.176C59.1689 126.176 58.334 125.833 57.707 125.147V129.656H55.5713V116.49H57.54L57.6279 117.457C58.2549 116.695 59.1074 116.314 60.1855 116.314C61.3457 116.314 62.2539 116.748 62.9102 117.615C63.5723 118.477 63.9033 119.675 63.9033 121.21V121.342ZM61.7764 121.157C61.7764 120.208 61.5859 119.455 61.2051 118.898C60.8301 118.342 60.291 118.063 59.5879 118.063C58.7148 118.063 58.0879 118.424 57.707 119.145V123.363C58.0938 124.102 58.7266 124.471 59.6055 124.471C60.2852 124.471 60.8154 124.198 61.1963 123.653C61.583 123.103 61.7764 122.271 61.7764 121.157ZM65.3184 121.157C65.3184 120.226 65.5029 119.388 65.8721 118.644C66.2412 117.894 66.7598 117.319 67.4277 116.921C68.0957 116.517 68.8633 116.314 69.7305 116.314C71.0137 116.314 72.0537 116.728 72.8506 117.554C73.6533 118.38 74.0869 119.476 74.1514 120.841L74.1602 121.342C74.1602 122.279 73.9785 123.117 73.6152 123.855C73.2578 124.594 72.7422 125.165 72.0684 125.569C71.4004 125.974 70.627 126.176 69.748 126.176C68.4062 126.176 67.3311 125.73 66.5225 124.84C65.7197 123.943 65.3184 122.751 65.3184 121.263V121.157ZM67.4541 121.342C67.4541 122.32 67.6562 123.088 68.0605 123.645C68.4648 124.195 69.0273 124.471 69.748 124.471C70.4688 124.471 71.0283 124.189 71.4268 123.627C71.8311 123.064 72.0332 122.241 72.0332 121.157C72.0332 120.196 71.8252 119.435 71.4092 118.872C70.999 118.31 70.4395 118.028 69.7305 118.028C69.0332 118.028 68.4795 118.307 68.0693 118.863C67.6592 119.414 67.4541 120.24 67.4541 121.342ZM84.3203 123.056L85.832 116.49H87.915L85.3223 126H83.5645L81.5254 119.47L79.5215 126H77.7637L75.1621 116.49H77.2451L78.7832 122.985L80.7344 116.49H82.3428L84.3203 123.056ZM93.5312 126.176C92.1777 126.176 91.0791 125.751 90.2354 124.901C89.3975 124.046 88.9785 122.909 88.9785 121.491V121.228C88.9785 120.278 89.1602 119.432 89.5234 118.688C89.8926 117.938 90.4082 117.354 91.0703 116.938C91.7324 116.522 92.4707 116.314 93.2852 116.314C94.5801 116.314 95.5791 116.728 96.2822 117.554C96.9912 118.38 97.3457 119.549 97.3457 121.061V121.922H91.1318C91.1963 122.707 91.457 123.328 91.9141 123.785C92.377 124.242 92.957 124.471 93.6543 124.471C94.6328 124.471 95.4297 124.075 96.0449 123.284L97.1963 124.383C96.8154 124.951 96.3057 125.394 95.667 125.71C95.0342 126.021 94.3223 126.176 93.5312 126.176ZM93.2764 118.028C92.6904 118.028 92.2158 118.233 91.8525 118.644C91.4951 119.054 91.2666 119.625 91.167 120.357H95.2363V120.199C95.1895 119.484 94.999 118.945 94.665 118.582C94.3311 118.213 93.8682 118.028 93.2764 118.028ZM103.99 118.441C103.709 118.395 103.419 118.371 103.12 118.371C102.142 118.371 101.482 118.746 101.143 119.496V126H99.0068V116.49H101.046L101.099 117.554C101.614 116.728 102.329 116.314 103.243 116.314C103.548 116.314 103.8 116.355 103.999 116.438L103.99 118.441ZM107.603 122.229H105.766L105.563 113.203H107.813L107.603 122.229ZM105.502 124.989C105.502 124.655 105.61 124.38 105.827 124.163C106.044 123.94 106.34 123.829 106.715 123.829C107.09 123.829 107.386 123.94 107.603 124.163C107.819 124.38 107.928 124.655 107.928 124.989C107.928 125.312 107.822 125.581 107.611 125.798C107.4 126.015 107.102 126.123 106.715 126.123C106.328 126.123 106.029 126.015 105.818 125.798C105.607 125.581 105.502 125.312 105.502 124.989Z" fill="black"/>
<path d="M13.5596 116.49L13.6211 117.589C14.3242 116.739 15.2471 116.314 16.3896 116.314C18.3701 116.314 19.3779 117.448 19.4131 119.716V126H17.2773V119.839C17.2773 119.235 17.1455 118.79 16.8818 118.503C16.624 118.21 16.1992 118.063 15.6074 118.063C14.7461 118.063 14.1045 118.453 13.6826 119.232V126H11.5469V116.49H13.5596ZM25.7852 126.176C24.4316 126.176 23.333 125.751 22.4893 124.901C21.6514 124.046 21.2324 122.909 21.2324 121.491V121.228C21.2324 120.278 21.4141 119.432 21.7773 118.688C22.1465 117.938 22.6621 117.354 23.3242 116.938C23.9863 116.522 24.7246 116.314 25.5391 116.314C26.834 116.314 27.833 116.728 28.5361 117.554C29.2451 118.38 29.5996 119.549 29.5996 121.061V121.922H23.3857C23.4502 122.707 23.7109 123.328 24.168 123.785C24.6309 124.242 25.2109 124.471 25.9082 124.471C26.8867 124.471 27.6836 124.075 28.2988 123.284L29.4502 124.383C29.0693 124.951 28.5596 125.394 27.9209 125.71C27.2881 126.021 26.5762 126.176 25.7852 126.176ZM25.5303 118.028C24.9443 118.028 24.4697 118.233 24.1064 118.644C23.749 119.054 23.5205 119.625 23.4209 120.357H27.4902V120.199C27.4434 119.484 27.2529 118.945 26.9189 118.582C26.585 118.213 26.1221 118.028 25.5303 118.028ZM35.4531 126.176C34.0996 126.176 33.001 125.751 32.1572 124.901C31.3193 124.046 30.9004 122.909 30.9004 121.491V121.228C30.9004 120.278 31.082 119.432 31.4453 118.688C31.8145 117.938 32.3301 117.354 32.9922 116.938C33.6543 116.522 34.3926 116.314 35.207 116.314C36.502 116.314 37.501 116.728 38.2041 117.554C38.9131 118.38 39.2676 119.549 39.2676 121.061V121.922H33.0537C33.1182 122.707 33.3789 123.328 33.8359 123.785C34.2988 124.242 34.8789 124.471 35.5762 124.471C36.5547 124.471 37.3516 124.075 37.9668 123.284L39.1182 124.383C38.7373 124.951 38.2275 125.394 37.5889 125.71C36.9561 126.021 36.2441 126.176 35.4531 126.176ZM35.1982 118.028C34.6123 118.028 34.1377 118.233 33.7744 118.644C33.417 119.054 33.1885 119.625 33.0889 120.357H37.1582V120.199C37.1113 119.484 36.9209 118.945 36.5869 118.582C36.2529 118.213 35.79 118.028 35.1982 118.028ZM40.5332 121.175C40.5332 119.71 40.873 118.535 41.5527 117.65C42.2324 116.76 43.1436 116.314 44.2861 116.314C45.2939 116.314 46.1084 116.666 46.7295 117.369V112.5H48.8652V126H46.9316L46.8262 125.016C46.1875 125.789 45.335 126.176 44.2686 126.176C43.1553 126.176 42.2529 125.728 41.5615 124.831C40.876 123.935 40.5332 122.716 40.5332 121.175ZM42.6689 121.359C42.6689 122.326 42.8535 123.082 43.2227 123.627C43.5977 124.166 44.1279 124.436 44.8135 124.436C45.6865 124.436 46.3252 124.046 46.7295 123.267V119.206C46.3369 118.444 45.7041 118.063 44.8311 118.063C44.1396 118.063 43.6064 118.339 43.2314 118.89C42.8564 119.435 42.6689 120.258 42.6689 121.359Z" fill="#01A4DA"/>
</svg>
