<svg width="107" height="130" viewBox="0 0 107 130" fill="none" xmlns="http://www.w3.org/2000/svg">
<path d="M3.79785 126H1.58301V113.203H3.79785V126ZM61.6738 121.342C61.6738 122.812 61.3398 123.987 60.6719 124.866C60.0039 125.739 59.1074 126.176 57.9824 126.176C56.9395 126.176 56.1045 125.833 55.4775 125.147V129.656H53.3418V116.49H55.3105L55.3984 117.457C56.0254 116.695 56.8779 116.314 57.9561 116.314C59.1162 116.314 60.0244 116.748 60.6807 117.615C61.3428 118.477 61.6738 119.675 61.6738 121.21V121.342ZM59.5469 121.157C59.5469 120.208 59.3564 119.455 58.9756 118.898C58.6006 118.342 58.0615 118.063 57.3584 118.063C56.4854 118.063 55.8584 118.424 55.4775 119.145V123.363C55.8643 124.102 56.4971 124.471 57.376 124.471C58.0557 124.471 58.5859 124.198 58.9668 123.653C59.3535 123.103 59.5469 122.271 59.5469 121.157ZM63.0889 121.157C63.0889 120.226 63.2734 119.388 63.6426 118.644C64.0117 117.894 64.5303 117.319 65.1982 116.921C65.8662 116.517 66.6338 116.314 67.501 116.314C68.7842 116.314 69.8242 116.728 70.6211 117.554C71.4238 118.38 71.8574 119.476 71.9219 120.841L71.9307 121.342C71.9307 122.279 71.749 123.117 71.3857 123.855C71.0283 124.594 70.5127 125.165 69.8389 125.569C69.1709 125.974 68.3975 126.176 67.5186 126.176C66.1768 126.176 65.1016 125.73 64.293 124.84C63.4902 123.943 63.0889 122.751 63.0889 121.263V121.157ZM65.2246 121.342C65.2246 122.32 65.4268 123.088 65.8311 123.645C66.2354 124.195 66.7979 124.471 67.5186 124.471C68.2393 124.471 68.7988 124.189 69.1973 123.627C69.6016 123.064 69.8037 122.241 69.8037 121.157C69.8037 120.196 69.5957 119.435 69.1797 118.872C68.7695 118.31 68.21 118.028 67.501 118.028C66.8037 118.028 66.25 118.307 65.8398 118.863C65.4297 119.414 65.2246 120.24 65.2246 121.342ZM82.0908 123.056L83.6025 116.49H85.6855L83.0928 126H81.335L79.2959 119.47L77.292 126H75.5342L72.9326 116.49H75.0156L76.5537 122.985L78.5049 116.49H80.1133L82.0908 123.056ZM91.3018 126.176C89.9482 126.176 88.8496 125.751 88.0059 124.901C87.168 124.046 86.749 122.909 86.749 121.491V121.228C86.749 120.278 86.9307 119.432 87.2939 118.688C87.6631 117.938 88.1787 117.354 88.8408 116.938C89.5029 116.522 90.2412 116.314 91.0557 116.314C92.3506 116.314 93.3496 116.728 94.0527 117.554C94.7617 118.38 95.1162 119.549 95.1162 121.061V121.922H88.9023C88.9668 122.707 89.2275 123.328 89.6846 123.785C90.1475 124.242 90.7275 124.471 91.4248 124.471C92.4033 124.471 93.2002 124.075 93.8154 123.284L94.9668 124.383C94.5859 124.951 94.0762 125.394 93.4375 125.71C92.8047 126.021 92.0928 126.176 91.3018 126.176ZM91.0469 118.028C90.4609 118.028 89.9863 118.233 89.623 118.644C89.2656 119.054 89.0371 119.625 88.9375 120.357H93.0068V120.199C92.96 119.484 92.7695 118.945 92.4355 118.582C92.1016 118.213 91.6387 118.028 91.0469 118.028ZM101.761 118.441C101.479 118.395 101.189 118.371 100.891 118.371C99.9121 118.371 99.2529 118.746 98.9131 119.496V126H96.7773V116.49H98.8164L98.8691 117.554C99.3848 116.728 100.1 116.314 101.014 116.314C101.318 116.314 101.57 116.355 101.77 116.438L101.761 118.441ZM105.373 122.229H103.536L103.334 113.203H105.584L105.373 122.229ZM103.272 124.989C103.272 124.655 103.381 124.38 103.598 124.163C103.814 123.94 104.11 123.829 104.485 123.829C104.86 123.829 105.156 123.94 105.373 124.163C105.59 124.38 105.698 124.655 105.698 124.989C105.698 125.312 105.593 125.581 105.382 125.798C105.171 126.015 104.872 126.123 104.485 126.123C104.099 126.123 103.8 126.015 103.589 125.798C103.378 125.581 103.272 125.312 103.272 124.989Z" fill="black"/>
<path d="M12.9121 117.527C13.6094 116.719 14.4912 116.314 15.5576 116.314C17.585 116.314 18.6133 117.472 18.6426 119.786V126H16.5068V119.865C16.5068 119.209 16.3633 118.746 16.0762 118.477C15.7949 118.201 15.3789 118.063 14.8281 118.063C13.9727 118.063 13.334 118.444 12.9121 119.206V126H10.7764V112.5H12.9121V117.527ZM26.4912 126C26.3975 125.818 26.3154 125.522 26.2451 125.112C25.5654 125.821 24.7334 126.176 23.749 126.176C22.7939 126.176 22.0146 125.903 21.4111 125.358C20.8076 124.813 20.5059 124.14 20.5059 123.337C20.5059 122.323 20.8809 121.547 21.6309 121.008C22.3867 120.463 23.4648 120.19 24.8652 120.19H26.1748V119.566C26.1748 119.074 26.0371 118.682 25.7617 118.389C25.4863 118.09 25.0674 117.94 24.5049 117.94C24.0186 117.94 23.6201 118.063 23.3096 118.31C22.999 118.55 22.8438 118.857 22.8438 119.232H20.708C20.708 118.711 20.8809 118.225 21.2266 117.773C21.5723 117.316 22.041 116.959 22.6328 116.701C23.2305 116.443 23.8955 116.314 24.6279 116.314C25.7412 116.314 26.6289 116.596 27.291 117.158C27.9531 117.715 28.293 118.5 28.3105 119.514V123.803C28.3105 124.658 28.4307 125.341 28.6709 125.851V126H26.4912ZM24.1445 124.462C24.5664 124.462 24.9619 124.359 25.3311 124.154C25.7061 123.949 25.9873 123.674 26.1748 123.328V121.535H25.0234C24.2324 121.535 23.6377 121.673 23.2393 121.948C22.8408 122.224 22.6416 122.613 22.6416 123.117C22.6416 123.527 22.7764 123.855 23.0459 124.102C23.3213 124.342 23.6875 124.462 24.1445 124.462ZM33.7598 123.293L35.7725 116.49H37.9785L34.6826 126H32.8281L29.5059 116.49H31.7207L33.7598 123.293ZM43.3838 126.176C42.0303 126.176 40.9316 125.751 40.0879 124.901C39.25 124.046 38.8311 122.909 38.8311 121.491V121.228C38.8311 120.278 39.0127 119.432 39.376 118.688C39.7451 117.938 40.2607 117.354 40.9229 116.938C41.585 116.522 42.3232 116.314 43.1377 116.314C44.4326 116.314 45.4316 116.728 46.1348 117.554C46.8438 118.38 47.1982 119.549 47.1982 121.061V121.922H40.9844C41.0488 122.707 41.3096 123.328 41.7666 123.785C42.2295 124.242 42.8096 124.471 43.5068 124.471C44.4854 124.471 45.2822 124.075 45.8975 123.284L47.0488 124.383C46.668 124.951 46.1582 125.394 45.5195 125.71C44.8867 126.021 44.1748 126.176 43.3838 126.176ZM43.1289 118.028C42.543 118.028 42.0684 118.233 41.7051 118.644C41.3477 119.054 41.1191 119.625 41.0195 120.357H45.0889V120.199C45.042 119.484 44.8516 118.945 44.5176 118.582C44.1836 118.213 43.7207 118.028 43.1289 118.028Z" fill="#449B21"/>
<circle cx="54" cy="46" r="46" fill="#449B21"/>
<path d="M54.0171 23C53.1891 23 52.5171 22.4027 52.5171 21.6667V16.3333C52.5171 15.5973 53.1891 15 54.0171 15C54.8451 15 55.5171 15.5973 55.5171 16.3333V21.6667C55.5171 22.4027 54.8451 23 54.0171 23Z" fill="white"/>
<path d="M72.7607 30C72.4425 30 72.1243 29.8782 71.8807 29.637C71.3959 29.1522 71.3959 28.364 71.8807 27.8792L75.3959 24.3636C75.8807 23.8788 76.6687 23.8788 77.1535 24.3636C77.6383 24.8484 77.6383 25.6366 77.1535 26.1214L73.6383 29.637C73.3971 29.8782 73.0789 30 72.7607 30Z" fill="white"/>
<path d="M85.1838 48H79.8504C79.1144 48 78.5171 47.328 78.5171 46.5C78.5171 45.672 79.1144 45 79.8504 45H85.1838C85.9198 45 86.5171 45.672 86.5171 46.5C86.5171 47.328 85.9198 48 85.1838 48Z" fill="white"/>
<path d="M76.2759 70C75.9577 70 75.6395 69.8782 75.3959 69.637L71.8807 66.1214C71.3959 65.6366 71.3959 64.8484 71.8807 64.3636C72.3654 63.8788 73.1535 63.8788 73.6383 64.3636L77.1535 67.8792C77.6383 68.364 77.6383 69.1522 77.1535 69.637C76.9124 69.8782 76.5942 70 76.2759 70Z" fill="white"/>
<path d="M54.0171 79C53.1891 79 52.5171 78.4027 52.5171 77.6667V72.3333C52.5171 71.5973 53.1891 71 54.0171 71C54.8451 71 55.5171 71.5973 55.5171 72.3333V77.6667C55.5171 78.4027 54.8451 79 54.0171 79Z" fill="white"/>
<path d="M32.7607 70C32.4425 70 32.1243 69.8782 31.8807 69.637C31.3959 69.1522 31.3959 68.364 31.8807 67.8792L35.3959 64.3636C35.8807 63.8788 36.6687 63.8788 37.1535 64.3636C37.6383 64.8484 37.6383 65.6366 37.1535 66.1214L33.6383 69.637C33.3971 69.8782 33.0789 70 32.7607 70Z" fill="white"/>
<path d="M29.1838 48H23.8504C23.1144 48 22.5171 47.328 22.5171 46.5C22.5171 45.672 23.1144 45 23.8504 45H29.1838C29.9198 45 30.5171 45.672 30.5171 46.5C30.5171 47.328 29.9198 48 29.1838 48Z" fill="white"/>
<path d="M36.2735 30C35.9553 30 35.637 29.8782 35.3934 29.637L31.8807 26.1214C31.3959 25.6366 31.3959 24.8484 31.8807 24.3636C32.3654 23.8788 33.1535 23.8788 33.6383 24.3636L37.1535 27.8792C37.6383 28.364 37.6383 29.1522 37.1535 29.637C36.9099 29.8782 36.5917 30 36.2735 30V30Z" fill="white"/>
<path fill-rule="evenodd" clip-rule="evenodd" d="M49.6923 67.9167C49.8489 67.9731 50.0055 68 50.1648 68C50.6076 68 51.0369 67.7823 51.2934 67.398L67.2967 43.2123C67.5668 42.7958 67.5911 42.2691 67.3561 41.8337C67.1212 41.3984 66.6649 41.127 66.1681 41.127H56.9609L59.4017 26.5671C59.5043 25.9544 59.1722 25.3552 58.5998 25.1106C58.0301 24.8634 57.3632 25.0408 56.9879 25.5406L40.7874 47.039C40.4796 47.4475 40.431 47.993 40.6605 48.4472C40.89 48.9013 41.3571 49.1889 41.8674 49.1889H51.1287L48.8255 66.4817C48.7418 67.0998 49.1009 67.6963 49.6923 67.9167ZM52.6677 46.5016H44.5675L55.8268 31.5602L54.0367 42.2503C53.9692 42.6372 54.0799 43.0376 54.3364 43.3386C54.5956 43.6423 54.9709 43.8143 55.3678 43.8143H63.6624L52.2762 61.0238L54.007 48.0226C54.0583 47.6383 53.9395 47.2486 53.683 46.9611C53.4265 46.6709 53.0592 46.5016 52.6677 46.5016Z" fill="white"/>
</svg>
