<svg width="51" height="51" viewBox="0 0 51 51" fill="none" xmlns="http://www.w3.org/2000/svg">
<path fill-rule="evenodd" clip-rule="evenodd" d="M25.0454 29.2061L17.5993 24.5033C17.2547 24.2856 17.1499 23.8307 17.3646 23.4842L24.668 11.706C24.8031 11.4883 25.0408 11.3555 25.2971 11.3548H25.2991C25.5546 11.3548 25.7922 11.4862 25.9281 11.7026L33.3209 23.4808C33.5366 23.8244 33.4364 24.2777 33.0961 24.4984L25.8459 29.2012C25.7231 29.2809 25.5826 29.3208 25.4419 29.3208C25.3042 29.3208 25.1666 29.2826 25.0454 29.2061ZM31.6743 23.6507L25.3032 13.5L19.0149 23.641L25.4365 27.6967L31.6743 23.6507Z" fill="black"/>
<path fill-rule="evenodd" clip-rule="evenodd" d="M25.053 39.0233L17.373 28.3069C17.1671 28.0196 17.1922 27.6269 17.4332 27.3683C17.6742 27.1097 18.0639 27.0566 18.3652 27.2417L25.3863 31.556L32.3192 27.2439C32.6154 27.0596 32.9999 27.1066 33.2431 27.3562C33.4866 27.6059 33.5234 27.9914 33.3316 28.2826L26.2767 38.9991C26.1422 39.2034 25.9157 39.3283 25.6712 39.3332L25.6565 39.3333C25.4175 39.3333 25.1926 39.2182 25.053 39.0233ZM25.7808 33.0594C25.542 33.2079 25.2397 33.2087 24.9999 33.0614L20.7248 30.4346L25.6305 37.2799L30.2314 30.2913L25.7808 33.0594Z" fill="black"/>
<path d="M43.265 7.42302C38.4781 2.63627 32.1136 0 25.344 0C20.2682 0 15.3703 1.4953 11.1801 4.32442C7.09157 7.08464 3.91664 10.9367 1.99832 15.464C1.83833 15.8415 2.01465 16.2773 2.39224 16.4374C2.76972 16.5974 3.20552 16.4209 3.3655 16.0434C7.11285 7.19948 15.7399 1.485 25.344 1.485C31.717 1.485 37.7085 3.96673 42.2149 8.47311C46.7213 12.9795 49.203 18.971 49.203 25.344C49.203 31.717 46.7213 37.7085 42.2149 42.2149C37.7085 46.7213 31.717 49.203 25.344 49.203C18.971 49.203 12.9795 46.7213 8.47311 42.2149C3.96673 37.7085 1.485 31.717 1.485 25.344C1.485 23.1577 1.78042 20.9919 2.36333 18.9068C2.47361 18.5119 2.24294 18.1023 1.84803 17.9919C1.45292 17.8813 1.04346 18.1122 0.933075 18.5071C0.313929 20.7223 0 23.0225 0 25.344C0 32.1136 2.63627 38.478 7.42302 43.265C12.2099 48.0517 18.5744 50.688 25.344 50.688C32.1136 50.688 38.4781 48.0517 43.265 43.265C48.0517 38.478 50.688 32.1136 50.688 25.344C50.688 18.5744 48.0517 12.21 43.265 7.42302Z" fill="black"/>
<path d="M40.2647 40.7332C40.5601 41.0176 41.0302 41.0086 41.3145 40.7132C45.3088 36.5635 47.5085 31.1053 47.5085 25.344C47.5085 19.4236 45.203 13.8576 41.0167 9.67121C36.8304 5.4849 31.2644 3.17939 25.344 3.17939C19.4236 3.17939 13.8576 5.4849 9.67121 9.67121C5.48489 13.8576 3.17938 19.4236 3.17938 25.344C3.17938 31.2644 5.48489 36.8304 9.67121 41.0168C13.8575 45.2031 19.4236 47.5086 25.344 47.5086C30.3038 47.5086 34.9931 45.9071 38.905 42.8772C39.2291 42.626 39.2884 42.1596 39.0374 41.8355C38.7861 41.5113 38.3196 41.4521 37.9957 41.7032C34.3465 44.5296 29.9716 46.0236 25.344 46.0236C13.9412 46.0236 4.66438 36.7467 4.66438 25.344C4.66438 13.9413 13.9412 4.66439 25.344 4.66439C36.7468 4.66439 46.0236 13.9413 46.0236 25.344C46.0236 30.7193 43.9713 35.8118 40.2447 39.6834C39.9603 39.9788 39.9692 40.4488 40.2647 40.7332Z" fill="black"/>
</svg>
