<svg width="27" height="45" viewBox="0 0 27 45" fill="none" xmlns="http://www.w3.org/2000/svg">
<path fill-rule="evenodd" clip-rule="evenodd" d="M26.8034 20.9854L26.829 21.3361C26.8545 21.6824 26.88 22.0295 26.88 22.4013C26.88 29.8119 20.8506 35.8413 13.44 35.8413C6.02945 35.8413 0 29.8119 0 22.4013C0 22.1469 0.000700001 21.8931 0.01603 21.6394C0.23478 14.0108 3.99441 12.1004 4.15408 12.0231C4.36919 11.9166 4.6186 11.9247 4.83077 12.0355C5.04077 12.1478 5.18511 12.3534 5.21941 12.5897C5.22669 12.6393 5.91647 17.1944 8.96147 17.8448C8.97386 15.8833 9.06213 12.9135 9.7293 10.2717C10.6903 6.47709 13.4415 2.50018 16.7388 0.14062C16.9655 -0.0242301 17.2652 -0.0453701 17.5146 0.0837099C17.7632 0.21209 17.92 0.46801 17.92 0.74801C17.92 4.23459 19.6755 6.59767 21.7082 9.33392L21.7087 9.3347C23.9042 12.29 26.3929 15.6406 26.8034 20.9854ZM19.4134 29.5756C19.4134 31.009 18.9339 32.3155 18.1588 33.3724C22.4053 31.5388 25.3867 27.313 25.3869 22.4014C25.3869 22.0785 25.3643 21.7776 25.3417 21.4766L25.3395 21.4476L25.314 21.0904C24.937 16.1845 22.6868 13.1548 20.5102 10.225C18.6792 7.76124 16.9373 5.41624 16.5209 2.21808C14.0133 4.40775 11.9359 7.64231 11.1776 10.6377C10.5097 13.2817 10.4535 16.1692 10.4535 18.6681C10.4535 19.0808 10.1195 19.4148 9.70683 19.4148C6.36286 19.4148 4.65514 16.3647 4.0033 14.0313C3.06852 15.0106 1.63639 17.2301 1.50808 21.7058C1.49346 21.9441 1.49349 22.1588 1.49352 22.3732L1.49352 22.4015C1.49352 27.3131 4.47489 31.5388 8.72137 33.3725C7.94633 32.3156 7.46683 31.0091 7.46683 29.5757C7.46683 29.4583 7.46753 29.3402 7.47411 29.222C7.56889 25.7352 9.22187 24.7873 9.41003 24.691C9.62514 24.5802 9.88106 24.5831 10.0947 24.694C10.3098 24.8055 10.4571 25.0148 10.4906 25.2547C10.492 25.2685 10.6525 26.301 11.1702 26.8581C11.1964 26.0648 11.2708 25.1001 11.4837 24.2083C11.9008 22.4692 13.0952 20.6478 14.5272 19.5657C14.7526 19.3943 15.0574 19.3658 15.3096 19.4928C15.5634 19.6189 15.7238 19.8778 15.7238 20.1614C15.7238 21.5483 16.4114 22.5261 17.2084 23.6578C18.1439 24.987 19.2034 26.4935 19.3806 28.9311C19.4025 29.2365 19.4134 29.3999 19.4134 29.5756Z" fill="black"/>
<path d="M10.5 41H15.8333" stroke="black" stroke-width="1.4" stroke-linecap="round"/>
<path d="M6.525 44H20" stroke="black" stroke-width="1.4" stroke-linecap="round"/>
</svg>
