<svg width="71" height="26" viewBox="0 0 71 26" fill="none" xmlns="http://www.w3.org/2000/svg">
<rect width="71" height="26" rx="12.6" fill="#449B21"/>
<path d="M16.5918 11.9155H19.0039V13.3247H16.5918V16.0732H15.0938V13.3247H12.6689V11.9155H15.0938V9.34473H16.5918V11.9155ZM29.6299 17H23.4155V15.9399L26.4941 12.582C26.9385 12.0869 27.2537 11.6743 27.4399 11.3442C27.6304 11.0099 27.7256 10.6756 27.7256 10.3413C27.7256 9.9012 27.6007 9.54574 27.3511 9.2749C27.1056 9.00407 26.7734 8.86865 26.3545 8.86865C25.8551 8.86865 25.4679 9.021 25.1929 9.32568C24.9178 9.63037 24.7803 10.0472 24.7803 10.5762H23.2378C23.2378 10.0133 23.3647 9.50765 23.6187 9.05908C23.8768 8.60628 24.2428 8.25505 24.7168 8.00537C25.195 7.7557 25.7451 7.63086 26.3672 7.63086C27.2643 7.63086 27.971 7.85726 28.4873 8.31006C29.0078 8.75863 29.2681 9.3807 29.2681 10.1763C29.2681 10.6375 29.1369 11.1221 28.8745 11.6299C28.6164 12.1335 28.1911 12.7069 27.5986 13.3501L25.3389 15.7686H29.6299V17ZM34.981 17H33.4448V9.57959L31.1787 10.354V9.05273L34.7842 7.72607H34.981V17ZM39.2529 15.375C39.5407 15.375 39.7629 15.4575 39.9194 15.6226C40.076 15.7834 40.1543 15.9865 40.1543 16.2319C40.1543 16.4731 40.076 16.6742 39.9194 16.835C39.7629 16.9915 39.5407 17.0698 39.2529 17.0698C38.9779 17.0698 38.7599 16.9915 38.5991 16.835C38.4383 16.6784 38.3579 16.4774 38.3579 16.2319C38.3579 15.9865 38.4362 15.7834 38.5928 15.6226C38.7493 15.4575 38.9694 15.375 39.2529 15.375ZM43.6074 11.6743H44.5469C45.0208 11.6701 45.3953 11.5474 45.6704 11.3062C45.9497 11.0649 46.0894 10.7158 46.0894 10.2588C46.0894 9.81868 45.973 9.47803 45.7402 9.23682C45.5117 8.99137 45.1605 8.86865 44.6865 8.86865C44.2718 8.86865 43.9312 8.98926 43.6646 9.23047C43.3979 9.46745 43.2646 9.77848 43.2646 10.1636H41.7222C41.7222 9.68962 41.847 9.25798 42.0967 8.86865C42.3506 8.47933 42.7018 8.17676 43.1504 7.96094C43.6032 7.74089 44.1089 7.63086 44.6675 7.63086C45.59 7.63086 46.3136 7.86361 46.8384 8.3291C47.3674 8.79036 47.6318 9.43359 47.6318 10.2588C47.6318 10.6735 47.4985 11.0649 47.2319 11.4331C46.9696 11.797 46.6289 12.0721 46.21 12.2583C46.7178 12.4318 47.1029 12.7048 47.3652 13.0771C47.6318 13.4495 47.7651 13.8939 47.7651 14.4102C47.7651 15.2396 47.4795 15.8997 46.9082 16.3906C46.3411 16.8815 45.5942 17.127 44.6675 17.127C43.7788 17.127 43.0509 16.89 42.4839 16.416C41.9168 15.9421 41.6333 15.3115 41.6333 14.5244H43.1758C43.1758 14.9307 43.3112 15.2607 43.582 15.5146C43.8571 15.7686 44.2253 15.8955 44.6865 15.8955C45.1647 15.8955 45.5413 15.7686 45.8164 15.5146C46.0915 15.2607 46.229 14.8926 46.229 14.4102C46.229 13.9235 46.0851 13.549 45.7974 13.2866C45.5096 13.0243 45.0822 12.8931 44.5151 12.8931H43.6074V11.6743ZM49.1489 9.53516C49.1489 8.97656 49.3288 8.51953 49.6885 8.16406C50.0482 7.80436 50.52 7.62451 51.104 7.62451C51.6965 7.62451 52.1704 7.80436 52.5259 8.16406C52.8856 8.51953 53.0654 8.98714 53.0654 9.56689V10.0239C53.0654 10.5783 52.8856 11.0332 52.5259 11.3887C52.1704 11.7441 51.7007 11.9219 51.1167 11.9219C50.5454 11.9219 50.0736 11.7484 49.7012 11.4014C49.333 11.0501 49.1489 10.5783 49.1489 9.98584V9.53516ZM50.228 10.0239C50.228 10.3159 50.3084 10.5529 50.4692 10.7349C50.6343 10.9126 50.8501 11.0015 51.1167 11.0015C51.3791 11.0015 51.5907 10.9126 51.7515 10.7349C51.9123 10.5529 51.9927 10.3075 51.9927 9.99854V9.53516C51.9927 9.24316 51.9102 9.00618 51.7451 8.82422C51.5843 8.64225 51.3706 8.55127 51.104 8.55127C50.8374 8.55127 50.6237 8.64437 50.4629 8.83057C50.3063 9.01253 50.228 9.25374 50.228 9.5542V10.0239ZM53.5923 14.7339C53.5923 14.1668 53.7764 13.7077 54.1445 13.3564C54.5127 13.0052 54.9824 12.8296 55.5537 12.8296C56.1292 12.8296 56.599 13.0052 56.9629 13.3564C57.3311 13.7077 57.5151 14.1816 57.5151 14.7783V15.229C57.5151 15.7791 57.3374 16.234 56.9819 16.5938C56.6307 16.9492 56.1589 17.127 55.5664 17.127C54.974 17.127 54.4958 16.9513 54.1318 16.6001C53.7721 16.2446 53.5923 15.777 53.5923 15.1973V14.7339ZM54.6714 15.229C54.6714 15.5168 54.7539 15.7537 54.9189 15.9399C55.0882 16.1219 55.304 16.2129 55.5664 16.2129C55.8372 16.2129 56.0488 16.1261 56.2012 15.9526C56.3577 15.7749 56.436 15.5273 56.436 15.21V14.7339C56.436 14.4377 56.3535 14.2007 56.1885 14.0229C56.0234 13.8452 55.8118 13.7563 55.5537 13.7563C55.2913 13.7563 55.0776 13.8452 54.9126 14.0229C54.7518 14.2007 54.6714 14.4461 54.6714 14.7593V15.229ZM51.4341 16.3081L50.6406 15.8511L55.1538 8.62744L55.9473 9.08447L51.4341 16.3081Z" fill="white"/>
</svg>
