<svg width="51" height="51" viewBox="0 0 51 51" fill="none" xmlns="http://www.w3.org/2000/svg">
<path d="M8.23499 32.2327C8.64919 32.2327 8.98499 31.8969 8.98499 31.4827V26.314C8.98499 25.8998 8.64919 25.564 8.23499 25.564C7.82079 25.564 7.48499 25.8998 7.48499 26.314V31.4827C7.48499 31.8969 7.82079 32.2327 8.23499 32.2327Z" fill="white"/>
<path d="M8.23499 21.8952C8.64919 21.8952 8.98499 21.5594 8.98499 21.1452V19.0685L10.7629 17.9953C11.1175 17.7812 11.2315 17.3203 11.0174 16.9656C10.8034 16.6111 10.3424 16.497 9.98769 16.7111L7.84739 18.003C7.62249 18.1388 7.48499 18.3823 7.48499 18.6451V21.1451C7.48499 21.5594 7.82079 21.8952 8.23499 21.8952Z" fill="white"/>
<path d="M14.7048 15.4904C14.8367 15.4904 14.9704 15.4556 15.0917 15.3824L19.4204 12.7694C19.775 12.5553 19.889 12.0944 19.6749 11.7397C19.4609 11.3852 19 11.2711 18.6452 11.4852L14.3165 14.0982C13.9619 14.3123 13.8479 14.7732 14.062 15.1279C14.2028 15.3613 14.4507 15.4904 14.7048 15.4904Z" fill="white"/>
<path d="M31.5407 12.7736L35.8335 15.3848C35.9553 15.4589 36.0897 15.4941 36.2225 15.4941C36.4757 15.4941 36.7228 15.3659 36.864 15.1337C37.0792 14.7798 36.9669 14.3185 36.613 14.1032L32.3202 11.492C31.9664 11.2768 31.505 11.3892 31.2897 11.743C31.0745 12.097 31.1868 12.5583 31.5407 12.7736Z" fill="white"/>
<path d="M40.1263 17.9961L41.9019 19.0762V21.1546C41.9019 21.5688 42.2377 21.9046 42.6519 21.9046C43.0661 21.9046 43.4019 21.5688 43.4019 21.1546V18.6546C43.4019 18.3928 43.2654 18.1499 43.0416 18.0138L40.9057 16.7146C40.5518 16.4994 40.0905 16.6118 39.8752 16.9656C39.66 17.3195 39.7724 17.7809 40.1263 17.9961Z" fill="white"/>
<path d="M42.6519 25.567C42.2377 25.567 41.9019 25.9028 41.9019 26.317V31.4795C41.9019 31.8937 42.2377 32.2295 42.6519 32.2295C43.0661 32.2295 43.4019 31.8937 43.4019 31.4795V26.317C43.4019 25.9028 43.0661 25.567 42.6519 25.567Z" fill="white"/>
<path d="M35.8335 42.4117L31.5407 45.0229C31.1868 45.2382 31.0744 45.6996 31.2897 46.0534C31.4309 46.2855 31.678 46.4138 31.9312 46.4138C32.064 46.4138 32.1985 46.3785 32.3202 46.3045L36.613 43.6933C36.9669 43.478 37.0793 43.0166 36.864 42.6628C36.6487 42.309 36.1875 42.1963 35.8335 42.4117Z" fill="white"/>
<path d="M27.2478 47.6341L25.5001 48.6971L23.7489 47.64C23.3942 47.4258 22.9332 47.5399 22.7192 47.8945C22.5051 48.2491 22.6191 48.7101 22.9737 48.9242L25.114 50.2161C25.2332 50.2881 25.3674 50.324 25.5016 50.324C25.6366 50.324 25.7717 50.2876 25.8913 50.2148L28.0272 48.9156C28.3811 48.7003 28.4935 48.2389 28.2782 47.8851C28.0631 47.5313 27.6018 47.4188 27.2478 47.6341Z" fill="white"/>
<path d="M19.4204 45.0271L15.0916 42.4142C14.7367 42.2 14.2759 42.3141 14.0619 42.6687C13.8478 43.0233 13.9618 43.4843 14.3164 43.6984L18.6452 46.3113C18.7665 46.3845 18.9001 46.4193 19.0321 46.4193C19.2862 46.4193 19.5341 46.2901 19.6749 46.0568C19.8889 45.7022 19.775 45.2412 19.4204 45.0271Z" fill="white"/>
<path d="M25.4935 19.771C25.9077 19.771 26.2435 19.4352 26.2435 19.021V18.445C26.2435 18.0308 25.9077 17.695 25.4935 17.695C25.0793 17.695 24.7435 18.0308 24.7435 18.445V19.021C24.7435 19.4352 25.0792 19.771 25.4935 19.771Z" fill="white"/>
<path d="M25.4935 24.0718C25.9077 24.0718 26.2435 23.736 26.2435 23.3218V22.7458C26.2435 22.3316 25.9077 21.9958 25.4935 21.9958C25.0793 21.9958 24.7435 22.3316 24.7435 22.7458V23.3218C24.7435 23.736 25.0792 24.0718 25.4935 24.0718Z" fill="white"/>
<path fill-rule="evenodd" clip-rule="evenodd" d="M47.8483 39.3676C47.047 39.3676 46.3153 39.6698 45.7601 40.1657L43.4019 38.8183V36.6419C43.4019 36.2277 43.0661 35.8919 42.6519 35.8919C42.2377 35.8919 41.9019 36.2277 41.9019 36.6419V37.9612L39.2002 36.4175L39.2009 36.4014L39.2017 36.3814L39.2019 36.3662V21.4302C39.2019 20.9145 38.9282 20.4277 38.4875 20.1595L26.2649 12.7246C26.2609 12.7222 26.2568 12.72 26.2527 12.7177L26.2434 12.7125V9.5514L27.2479 10.1624C27.3697 10.2365 27.5041 10.2717 27.6369 10.2717C27.8901 10.2717 28.1372 10.1435 28.2784 9.9113C28.4936 9.5574 28.3813 9.0961 28.0274 8.8808L26.2434 7.7956V6.2488C27.613 5.9116 28.632 4.6736 28.632 3.2014C28.632 1.4707 27.224 0.0628014 25.4934 0.0628014C23.7628 0.0628014 22.3548 1.4708 22.3548 3.2014C22.3548 4.6736 23.3738 5.9116 24.7434 6.2488V7.8041L22.9739 8.8722C22.6193 9.0863 22.5053 9.5472 22.7194 9.9019C22.9335 10.2566 23.3944 10.3706 23.7491 10.1564L24.7434 9.5562V12.7109L24.734 12.7161L24.7274 12.7197L24.7233 12.7221L12.4036 20.1587C11.9603 20.4263 11.6849 20.9142 11.6849 21.432V26.0485C11.6849 26.4627 12.0207 26.7985 12.4349 26.7985C12.8491 26.7985 13.1849 26.4627 13.1849 26.0485V22.3446L24.7433 29.3217V43.3345L13.3335 36.4472L13.328 36.436C13.3251 36.4299 13.3222 36.4239 13.319 36.418L13.314 36.4088C13.2781 36.3461 13.2342 36.291 13.1848 36.243V29.2448C13.1848 28.8306 12.849 28.4948 12.4348 28.4948C12.0206 28.4948 11.6848 28.8306 11.6848 29.2448V36.3647C11.6848 36.4011 11.6865 36.4373 11.6892 36.4733L8.985 38.0184V36.6513C8.985 36.2371 8.6492 35.9013 8.235 35.9013C7.8208 35.9013 7.485 36.2371 7.485 36.6513V38.8754L5.2268 40.1656C4.6716 39.6697 3.9398 39.3675 3.1386 39.3675C1.408 39.3676 0 40.7756 0 42.5063C0 44.237 1.408 45.6449 3.1386 45.6449C4.8692 45.6449 6.2772 44.2369 6.2772 42.5063C6.2772 42.1197 6.2065 41.7493 6.0781 41.407L8.3602 40.1031L9.9876 41.0855C10.1088 41.1587 10.2425 41.1935 10.3745 41.1935C10.6286 41.1935 10.8765 41.0643 11.0173 40.831C11.2314 40.4764 11.1174 40.0154 10.7628 39.8013L9.8513 39.2511L12.5353 37.7175L24.7232 45.0744C24.7991 45.1202 24.878 45.1578 24.9588 45.189C25.0949 45.3273 25.284 45.4133 25.4933 45.4133C25.7035 45.4133 25.8932 45.3266 26.0294 45.1873C26.1101 45.1559 26.189 45.118 26.2647 45.0719L31.0924 42.1353C31.4463 41.92 31.5587 41.4586 31.3434 41.1048C31.1281 40.751 30.6667 40.6384 30.3129 40.8538L26.2433 43.3293V29.3199L37.7017 22.3498V36.3591L33.0731 39.1746C32.7192 39.3899 32.6069 39.8513 32.8221 40.2052C32.9633 40.4373 33.2104 40.5655 33.4636 40.5655C33.5964 40.5655 33.7309 40.5302 33.8527 40.4562L38.4017 37.6891L41.0806 39.2198L40.1261 39.8004C39.7722 40.0157 39.6598 40.4771 39.8751 40.8309C40.0163 41.063 40.2634 41.1913 40.5166 41.1913C40.6494 41.1913 40.7839 41.156 40.9056 41.082L42.569 40.0702L44.9087 41.407C44.7803 41.7493 44.7096 42.1196 44.7096 42.5063C44.7096 44.237 46.1176 45.6449 47.8482 45.6449C49.5788 45.6449 50.9868 44.2369 50.9868 42.5063C50.9868 40.7757 49.579 39.3676 47.8483 39.3676ZM3.1386 44.1449C2.2351 44.1449 1.5 43.4098 1.5 42.5063C1.5 41.6028 2.2351 40.8677 3.1386 40.8677C4.0421 40.8677 4.7772 41.6028 4.7772 42.5063C4.7772 43.4098 4.0421 44.1449 3.1386 44.1449ZM25.4934 1.5628C24.5899 1.5628 23.8548 2.2979 23.8548 3.2014C23.8548 4.1049 24.59 4.84 25.4935 4.84C26.397 4.84 27.132 4.1049 27.132 3.2014C27.132 2.2979 26.3969 1.5628 25.4934 1.5628ZM24.7435 14.4621V15.2513C24.7435 15.6655 25.0793 16.0013 25.4935 16.0013C25.9077 16.0013 26.2435 15.6655 26.2435 15.2513V14.4674L37.0088 21.0158L26.2435 27.5642V26.6858C26.2435 26.2716 25.9077 25.9358 25.4935 25.9358C25.0793 25.9358 24.7435 26.2716 24.7435 26.6858V27.5695L13.8864 21.0157L24.7435 14.4621ZM46.2097 42.5063C46.2097 43.4098 46.9448 44.1449 47.8483 44.1449C48.7518 44.1449 49.4869 43.4098 49.4869 42.5063C49.4869 41.6028 48.7518 40.8677 47.8483 40.8677C46.9448 40.8677 46.2097 41.6028 46.2097 42.5063Z" fill="white"/>
</svg>
