<svg width="42" height="52" viewBox="0 0 42 52" fill="none" xmlns="http://www.w3.org/2000/svg">
<path fill-rule="evenodd" clip-rule="evenodd" d="M17.2217 7.8101C17.2217 5.7268 18.9165 4.032 20.9998 4.032C23.0831 4.032 24.778 5.7268 24.7779 7.8101C24.7779 9.8932 23.0831 11.5881 20.9998 11.5881C18.9165 11.5881 17.2217 9.8934 17.2217 7.8101ZM18.7295 7.81C18.7295 9.0618 19.748 10.0802 20.9998 10.0802C22.2517 10.0802 23.2701 9.0619 23.2701 7.81C23.2701 6.5581 22.2517 5.5397 20.9998 5.5397C19.7479 5.5397 18.7295 6.5582 18.7295 7.81Z" fill="white"/>
<path d="M20.9998 0C20.5833 0 20.2459 0.3376 20.2459 0.7539V1.7619C20.2459 2.1783 20.5834 2.5158 20.9998 2.5158C21.4162 2.5158 21.7537 2.1782 21.7537 1.7619V0.7539C21.7538 0.3376 21.4163 0 20.9998 0Z" fill="white"/>
<path d="M17.2563 3.0002L16.5435 2.2875C16.2492 1.9931 15.7718 1.9932 15.4773 2.2875C15.1829 2.5819 15.1829 3.0593 15.4774 3.3538L16.1901 4.0666C16.3373 4.2138 16.5303 4.2874 16.7232 4.2874C16.9161 4.2874 17.1091 4.2138 17.2564 4.0665C17.5508 3.772 17.5508 3.2946 17.2563 3.0002Z" fill="white"/>
<path d="M14.9518 7.056H13.9438C13.5273 7.056 13.1899 7.3936 13.1899 7.8099C13.1899 8.2263 13.5274 8.5638 13.9438 8.5638H14.9518C15.3683 8.5638 15.7057 8.2262 15.7057 7.8099C15.7057 7.3936 15.3682 7.056 14.9518 7.056Z" fill="white"/>
<path d="M17.2563 11.5536C16.9618 11.2592 16.4845 11.2592 16.1899 11.5536L15.4772 12.2663C15.1828 12.5607 15.1828 13.0381 15.4772 13.3325C15.6245 13.4797 15.8175 13.5534 16.0104 13.5534C16.2033 13.5534 16.3963 13.4798 16.5436 13.3325L17.2563 12.6198C17.5507 12.3254 17.5507 11.848 17.2563 11.5536Z" fill="white"/>
<path d="M20.9998 13.1042C20.5833 13.1042 20.2459 13.4418 20.2459 13.8581V14.8661C20.2459 15.2825 20.5834 15.62 20.9998 15.62C21.4162 15.62 21.7537 15.2824 21.7537 14.8661V13.8581C21.7538 13.4418 21.4163 13.1042 20.9998 13.1042Z" fill="white"/>
<path d="M26.5225 12.2665L25.8098 11.5538C25.5154 11.2594 25.038 11.2593 24.7435 11.5537C24.449 11.8481 24.449 12.3255 24.7434 12.62L25.4561 13.3327C25.6034 13.4799 25.7963 13.5535 25.9893 13.5535C26.1822 13.5535 26.3752 13.4799 26.5224 13.3327C26.8169 13.0383 26.8169 12.5609 26.5225 12.2665Z" fill="white"/>
<path d="M28.056 7.0562H27.048C26.6315 7.0562 26.2941 7.3938 26.2941 7.8101C26.2941 8.2264 26.6316 8.564 27.048 8.564H28.056C28.4725 8.564 28.8099 8.2264 28.8099 7.8101C28.8099 7.3938 28.4725 7.0562 28.056 7.0562Z" fill="white"/>
<path d="M26.5224 2.2874C26.2281 1.993 25.7507 1.9931 25.4562 2.2874L24.7435 3.0001C24.4491 3.2945 24.4491 3.7719 24.7436 4.0664C24.8907 4.2137 25.0837 4.2873 25.2766 4.2873C25.4695 4.2873 25.6625 4.2137 25.8098 4.0664L26.5225 3.3537C26.8169 3.0593 26.8169 2.5819 26.5224 2.2874Z" fill="white"/>
<path fill-rule="evenodd" clip-rule="evenodd" d="M41.9103 38.5786C41.9112 38.5879 41.9115 38.5972 41.9118 38.6065L41.9123 38.6181L41.913 38.6295C41.9135 38.6376 41.9141 38.6457 41.914 38.6541V38.6639L41.9139 38.6673V41.6781C41.9139 42.0944 41.5765 42.432 41.16 42.432H23.2659V46.6676H29.0641C29.4805 46.6676 29.818 47.0051 29.818 47.4215V49.6919H37.127C37.5434 49.6919 37.8809 50.0295 37.8809 50.4458C37.8809 50.8621 37.5435 51.1997 37.127 51.1997H29.064H12.9355H4.87139C4.45499 51.1997 4.11749 50.8621 4.11749 50.4458C4.11749 50.0295 4.45489 49.6919 4.87139 49.6919H12.1815V47.4215C12.1815 47.0052 12.5189 46.6676 12.9354 46.6676H18.7336V42.432H0.839593C0.423193 42.432 0.0856934 42.0945 0.0856934 41.6781V38.6538C0.0856934 38.6367 0.086916 38.6199 0.0881371 38.6032L0.0881374 38.6032L0.0883934 38.5997L0.0888303 38.5907C0.0889503 38.5872 0.0890705 38.5837 0.0893934 38.5803C0.0920934 38.5525 0.0963934 38.525 0.101993 38.4981L1.44459 32.1202L1.44569 32.1147L2.78819 25.7372L2.78989 25.7292L4.13349 19.3462C4.20699 18.9973 4.51469 18.7476 4.87129 18.7476H37.1282C37.4848 18.7476 37.7926 18.9973 37.866 19.3462L39.2099 25.7299L39.2113 25.7367L40.5539 32.1141L40.5553 32.1209L41.898 38.4987L41.8983 38.5004C41.9037 38.526 41.9077 38.5521 41.9103 38.5786ZM28.423 37.9H40.2311L39.2045 33.0237H28.0807L28.423 37.9ZM37.8605 26.6396L38.8872 31.5159H27.9749L27.6326 26.6396H37.8605ZM37.5432 25.1318L36.5165 20.2555H27.1845L27.5268 25.1318H37.5432ZM16.3265 20.2555H25.673L26.0153 25.1318H15.9843L16.3265 20.2555ZM26.1211 26.6396H15.8786L15.5364 31.5159H26.4634L26.1211 26.6396ZM15.4307 33.0238H26.5692L26.9114 37.9H15.0885L15.4307 33.0238ZM14.815 20.2555H5.48309L4.45649 25.1318H14.4728L14.815 20.2555ZM4.13919 26.6396H14.367L14.0248 31.5159H3.11259L4.13919 26.6396ZM28.3102 49.6921V48.1757H22.5121H19.4877H13.6895V49.6921H28.3102ZM20.2416 46.6678V42.4322H21.7581V46.6678H20.2416ZM22.5164 40.9241C22.5179 40.9242 22.5193 40.9243 22.5208 40.9243V40.9242H40.406V39.4078H27.7206H27.7192H27.7182H14.2815H14.2805H14.2791H8.44539H8.44529C8.02889 39.4078 7.69139 39.0703 7.69139 38.6539C7.69139 38.2376 8.02879 37.9 8.44529 37.9H8.44539H13.5768L13.919 33.0238H2.79519L1.76869 37.9001H5.18499C5.60139 37.9001 5.93889 38.2376 5.93889 38.654C5.93889 39.0703 5.60149 39.4079 5.18499 39.4079H1.59349V40.9243H19.479C19.4804 40.9243 19.4819 40.9242 19.4833 40.9241C19.4848 40.924 19.4862 40.9239 19.4877 40.9239H22.5121C22.5135 40.9239 22.515 40.924 22.5164 40.9241Z" fill="white"/>
</svg>
