<svg width="42" height="52" viewBox="0 0 42 52" fill="none" xmlns="http://www.w3.org/2000/svg">
<path fill-rule="evenodd" clip-rule="evenodd" d="M38.1474 29.7296L30.7097 23.4071C29.6078 22.4609 28.1289 22.9054 27.3226 23.9641L24.9601 22.6C25.9133 20.0311 24.2727 17.1539 21.55 16.6911V13.8158C21.79 13.7329 22.0229 13.6228 22.2434 13.4827C23.1939 12.8785 23.7613 11.8455 23.7613 10.7193V2.0824C23.7612 0.9342 22.8271 0 21.6788 0C20.6729 0 19.8115 0.7182 19.6304 1.7077L17.8739 11.3101C17.6953 12.2865 18.1983 13.2627 19.097 13.6841C19.404 13.828 19.7252 13.9205 20.05 13.9648V16.6929C18.7595 16.9152 17.6438 17.6828 16.9785 18.8113C16.276 20.003 16.1963 21.3922 16.6405 22.5991L14.1481 24.0386C13.9562 23.872 13.7439 23.7253 13.5121 23.6044C12.5139 23.0834 11.3354 23.1086 10.36 23.6716L2.8804 27.99C1.8929 28.552 1.5503 29.8509 2.1182 30.8346C2.6252 31.7129 3.6896 32.0886 4.6212 31.7547L13.8154 28.4747C14.7504 28.1412 15.3443 27.2175 15.2597 26.2284C15.2308 25.8909 15.1507 25.5666 15.0268 25.2633L17.3886 23.8992C17.6593 24.2256 17.9806 24.5176 18.3499 24.7619L17.6605 38.3752C17.6381 38.8024 17.9815 39.1631 18.4101 39.1631C18.8069 39.1631 19.1382 38.8518 19.1585 38.451L19.82 25.3882C20.1419 25.4608 20.4677 25.4987 20.7922 25.4987C21.1255 25.4987 21.4565 25.459 21.7797 25.3856L23.0111 49.7H18.5889L18.9802 41.975C19.0012 41.5613 18.6828 41.209 18.2691 41.188C17.8556 41.1654 17.5031 41.4855 17.4822 41.8991L17.087 49.7H8.3352C7.9209 49.7 7.5852 50.0358 7.5852 50.45C7.5852 50.8642 7.9209 51.2 8.3352 51.2H33.264C33.6783 51.2 34.014 50.8642 34.014 50.45C34.014 50.0358 33.6783 49.7 33.264 49.7H24.513L23.25 24.7597C23.605 24.5252 23.9286 24.2365 24.2093 23.8985L26.7015 25.3375C26.4348 26.6941 27.06 28.1031 28.2778 28.8012L35.7575 33.1197C36.7408 33.6886 38.0217 33.3628 38.6021 32.3574C39.105 31.4863 38.9138 30.3812 38.1474 29.7296ZM1.55 20.75C1.55 22.3309 1.7417 23.9017 2.1197 25.4187C2.2199 25.8206 1.9753 26.2276 1.5734 26.3277C1.18 26.4257 0.765299 26.1867 0.664299 25.7813C0.256599 24.1458 0.0499992 22.453 0.0499992 20.75C0.0499992 16.558 1.294 12.5188 3.6478 9.0692C5.9452 5.7019 9.145 3.104 12.9013 1.5565C13.2845 1.3986 13.7227 1.5814 13.8804 1.9643C14.0382 2.3474 13.8556 2.7857 13.4726 2.9435C9.9878 4.3791 7.0188 6.7897 4.8868 9.9146C2.7038 13.1141 1.55 16.8609 1.55 20.75ZM9.4 21.838C8.9857 21.838 8.65 21.5022 8.65 21.088C8.65 16.6041 11.1062 12.5 15.0603 10.3772C15.4253 10.1813 15.8799 10.3184 16.0759 10.6833C16.2718 11.0482 16.1347 11.5029 15.7698 11.6988C12.3034 13.5598 10.15 17.1575 10.15 21.088C10.15 21.5022 9.8143 21.838 9.4 21.838ZM25.8302 11.6988C29.2966 13.5598 31.45 17.1575 31.45 21.088C31.45 21.5022 31.7857 21.838 32.2 21.838C32.6143 21.838 32.95 21.5022 32.95 21.088C32.95 16.6041 30.4938 12.5 26.5397 10.3772C26.1747 10.1813 25.7201 10.3183 25.5241 10.6833C25.3282 11.0482 25.4652 11.5028 25.8302 11.6988ZM15.3115 39.207C15.7087 39.3249 15.935 39.7424 15.817 40.1395C15.6977 40.541 15.2714 40.7598 14.8845 40.6449C12.1672 39.8379 9.682 38.5024 7.4977 36.6753C7.1801 36.4095 7.138 35.9365 7.4037 35.6188C7.6695 35.3011 8.1424 35.259 8.4602 35.5247C10.4865 37.2197 12.7917 38.4586 15.3115 39.207ZM4.1172 30.342L13.3114 27.062C13.6052 26.9572 13.7918 26.6668 13.7653 26.3562C13.7125 25.739 13.3673 25.2208 12.8182 24.9342C12.2698 24.648 11.6472 24.6605 11.1101 24.9706L3.6304 29.289C3.3552 29.4461 3.2588 29.8103 3.4172 30.0846C3.5579 30.3283 3.8521 30.4368 4.1172 30.342ZM19.7337 12.3259C19.4513 12.1935 19.2933 11.8868 19.3494 11.5801L21.1059 1.9777C21.1565 1.7009 21.3974 1.5001 21.6788 1.5001C22 1.5001 22.2612 1.7614 22.2612 2.0825V10.7193C22.2612 11.3387 21.9614 11.8845 21.4386 12.2168C20.9161 12.549 20.2946 12.589 19.7337 12.3259ZM19.3087 23.593C20.7035 24.4152 22.5067 23.9494 23.3287 22.5549C24.4731 20.6135 22.9789 18.0895 20.8135 18.1272C20.809 18.1273 20.8046 18.1279 20.8 18.1279C19.7571 18.1279 18.8035 18.6692 18.2707 19.573C17.4486 20.9676 17.9143 22.7709 19.3087 23.593ZM37.303 31.6074C37.1424 31.8856 36.7857 31.9811 36.5074 31.8206L29.0277 27.5021C27.9074 26.868 27.8497 25.2291 28.9001 24.5099C29.1571 24.3339 29.5005 24.3479 29.7382 24.55L37.1758 30.8724C37.3901 31.0547 37.4437 31.3638 37.303 31.6074ZM20.0497 21.064C20.0497 20.6498 20.3855 20.314 20.7997 20.314C21.2139 20.314 21.5497 20.6498 21.5497 21.064C21.5497 21.4782 21.2139 21.814 20.7997 21.814C20.3855 21.814 20.0497 21.4782 20.0497 21.064ZM33.1399 35.5246C31.112 37.2202 28.8068 38.4591 26.2884 39.207C25.8912 39.3249 25.665 39.7424 25.7829 40.1395C25.9021 40.5406 26.327 40.7603 26.7153 40.6449C29.4309 39.8384 31.9162 38.5029 34.1019 36.6754C34.4197 36.4097 34.462 35.9367 34.1962 35.619C33.9308 35.3011 33.4577 35.259 33.1399 35.5246ZM28.6986 1.5566C32.4549 3.104 35.6547 5.7019 37.9522 9.0692C40.306 12.5188 41.55 16.558 41.55 20.7502C41.55 22.4532 41.3433 24.146 40.9357 25.7815C40.8344 26.1878 40.4182 26.4255 40.0266 26.3279C39.6246 26.2277 39.38 25.8207 39.4802 25.4188C39.8582 23.9017 40.0499 22.331 40.0499 20.7501C40.0499 16.861 38.8961 13.1142 36.7131 9.9147C34.5811 6.7898 31.6122 4.3792 28.1273 2.9436C27.7443 2.7858 27.5617 2.3474 27.7195 1.9644C27.8772 1.5814 28.3158 1.3987 28.6986 1.5566Z" fill="black"/>
</svg>
